<svg width="37" height="36" viewBox="0 0 37 36" fill="none" xmlns="http://www.w3.org/2000/svg">
<g filter="url(#filter0_d_6_301)">
<path d="M9.60763 28H26.7257C29.8175 28 32.3333 25.5138 32.3333 22.4583V5.54167C32.3333 2.48617 29.8175 0 26.7257 0H9.60763C6.51576 0 4 2.48617 4 5.54167V22.4583C4 25.5138 6.51576 28 9.60763 28ZM5.77083 5.54167C5.77083 3.451 7.49208 1.75 9.60763 1.75H26.7257C28.8412 1.75 30.5625 3.451 30.5625 5.54167V22.4583C30.5625 24.549 28.8412 26.25 26.7257 26.25H9.60763C7.49208 26.25 5.77083 24.549 5.77083 22.4583V5.54167Z" fill="white"/>
</g>
<path d="M18.2368 21.3033C22.2271 21.3033 25.4736 18.095 25.4736 14.1517C25.4736 10.2083 22.2271 7 18.2368 7C14.2465 7 11 10.2083 11 14.1517C11 18.095 14.2465 21.3033 18.2368 21.3033ZM18.2368 8.75C21.2507 8.75 23.7028 11.1732 23.7028 14.1517C23.7028 17.1302 21.2507 19.5533 18.2368 19.5533C15.2228 19.5533 12.7708 17.1302 12.7708 14.1517C12.7708 11.1732 15.2228 8.75 18.2368 8.75V8.75Z" fill="white"/>
<path d="M25.6732 8.58891C26.8372 8.58891 27.7143 7.72558 27.7143 6.58108C27.7143 5.38758 26.7912 4.57324 25.6744 4.57324C24.5103 4.57324 23.6332 5.43658 23.6332 6.58108C23.6332 7.77224 24.5516 8.58891 25.6732 8.58891ZM25.8821 6.38858C26.2552 6.71408 25.404 7.10958 25.404 6.58224C25.404 6.26724 25.8373 6.34891 25.8821 6.38858Z" fill="white"/>
<defs>
<filter id="filter0_d_6_301" x="0" y="0" width="36.3333" height="36" filterUnits="userSpaceOnUse" color-interpolation-filters="sRGB">
<feFlood flood-opacity="0" result="BackgroundImageFix"/>
<feColorMatrix in="SourceAlpha" type="matrix" values="0 0 0 0 0 0 0 0 0 0 0 0 0 0 0 0 0 0 127 0" result="hardAlpha"/>
<feOffset dy="4"/>
<feGaussianBlur stdDeviation="2"/>
<feComposite in2="hardAlpha" operator="out"/>
<feColorMatrix type="matrix" values="0 0 0 0 0 0 0 0 0 0 0 0 0 0 0 0 0 0 0.25 0"/>
<feBlend mode="normal" in2="BackgroundImageFix" result="effect1_dropShadow_6_301"/>
<feBlend mode="normal" in="SourceGraphic" in2="effect1_dropShadow_6_301" result="shape"/>
</filter>
</defs>
</svg>
